<mxfile host="app.diagrams.net" modified="2022-11-30T10:37:03.625Z" agent="5.0 (X11; Linux x86_64) AppleWebKit/537.36 (KHTML, like Gecko) Chrome/107.0.0.0 Safari/537.36" version="20.6.0" etag="3X_mMGTOptrbreglIJlf" type="github">
  <diagram id="6XEkfEh8e34Wi2nq5XxP" name="Page-1">
    <mxGraphModel dx="1292" dy="753" grid="1" gridSize="10" guides="1" tooltips="1" connect="1" arrows="1" fold="1" page="1" pageScale="1" pageWidth="827" pageHeight="1169" math="0" shadow="0">
      <root>
        <mxCell id="0" />
        <mxCell id="1" parent="0" />
        <mxCell id="JzcaBnQAB8-s2QHEofvj-20" style="edgeStyle=none;rounded=0;orthogonalLoop=1;jettySize=auto;html=1;exitX=1;exitY=0;exitDx=0;exitDy=0;endArrow=none;endFill=0;" edge="1" parent="1" source="JzcaBnQAB8-s2QHEofvj-1" target="JzcaBnQAB8-s2QHEofvj-16">
          <mxGeometry relative="1" as="geometry" />
        </mxCell>
        <mxCell id="JzcaBnQAB8-s2QHEofvj-21" style="edgeStyle=none;rounded=0;orthogonalLoop=1;jettySize=auto;html=1;exitX=1;exitY=0.5;exitDx=0;exitDy=0;entryX=0;entryY=0.5;entryDx=0;entryDy=0;endArrow=none;endFill=0;" edge="1" parent="1" source="JzcaBnQAB8-s2QHEofvj-1" target="JzcaBnQAB8-s2QHEofvj-10">
          <mxGeometry relative="1" as="geometry" />
        </mxCell>
        <mxCell id="JzcaBnQAB8-s2QHEofvj-1" value="U1" style="ellipse;whiteSpace=wrap;html=1;aspect=fixed;" vertex="1" parent="1">
          <mxGeometry x="120" y="200" width="60" height="60" as="geometry" />
        </mxCell>
        <mxCell id="JzcaBnQAB8-s2QHEofvj-22" style="edgeStyle=none;rounded=0;orthogonalLoop=1;jettySize=auto;html=1;exitX=1;exitY=0.5;exitDx=0;exitDy=0;entryX=0;entryY=0.5;entryDx=0;entryDy=0;endArrow=none;endFill=0;" edge="1" parent="1" source="JzcaBnQAB8-s2QHEofvj-8" target="JzcaBnQAB8-s2QHEofvj-11">
          <mxGeometry relative="1" as="geometry" />
        </mxCell>
        <mxCell id="JzcaBnQAB8-s2QHEofvj-24" style="edgeStyle=none;rounded=0;orthogonalLoop=1;jettySize=auto;html=1;exitX=1;exitY=1;exitDx=0;exitDy=0;entryX=0;entryY=0.5;entryDx=0;entryDy=0;endArrow=none;endFill=0;" edge="1" parent="1" source="JzcaBnQAB8-s2QHEofvj-8" target="JzcaBnQAB8-s2QHEofvj-12">
          <mxGeometry relative="1" as="geometry" />
        </mxCell>
        <mxCell id="JzcaBnQAB8-s2QHEofvj-8" value="U2" style="ellipse;whiteSpace=wrap;html=1;aspect=fixed;" vertex="1" parent="1">
          <mxGeometry x="120" y="329" width="60" height="60" as="geometry" />
        </mxCell>
        <mxCell id="JzcaBnQAB8-s2QHEofvj-25" style="edgeStyle=none;rounded=0;orthogonalLoop=1;jettySize=auto;html=1;exitX=1;exitY=0.5;exitDx=0;exitDy=0;entryX=0;entryY=0.5;entryDx=0;entryDy=0;endArrow=none;endFill=0;" edge="1" parent="1" source="JzcaBnQAB8-s2QHEofvj-9" target="JzcaBnQAB8-s2QHEofvj-13">
          <mxGeometry relative="1" as="geometry" />
        </mxCell>
        <mxCell id="JzcaBnQAB8-s2QHEofvj-9" value="U3" style="ellipse;whiteSpace=wrap;html=1;aspect=fixed;" vertex="1" parent="1">
          <mxGeometry x="120" y="470" width="60" height="60" as="geometry" />
        </mxCell>
        <mxCell id="JzcaBnQAB8-s2QHEofvj-10" value="V2" style="ellipse;whiteSpace=wrap;html=1;aspect=fixed;" vertex="1" parent="1">
          <mxGeometry x="230" y="217" width="60" height="60" as="geometry" />
        </mxCell>
        <mxCell id="JzcaBnQAB8-s2QHEofvj-11" value="V3" style="ellipse;whiteSpace=wrap;html=1;aspect=fixed;" vertex="1" parent="1">
          <mxGeometry x="230" y="319" width="60" height="60" as="geometry" />
        </mxCell>
        <mxCell id="JzcaBnQAB8-s2QHEofvj-12" value="V4" style="ellipse;whiteSpace=wrap;html=1;aspect=fixed;" vertex="1" parent="1">
          <mxGeometry x="230" y="422" width="60" height="60" as="geometry" />
        </mxCell>
        <mxCell id="JzcaBnQAB8-s2QHEofvj-13" value="V5" style="ellipse;whiteSpace=wrap;html=1;aspect=fixed;" vertex="1" parent="1">
          <mxGeometry x="230" y="530" width="60" height="60" as="geometry" />
        </mxCell>
        <mxCell id="JzcaBnQAB8-s2QHEofvj-16" value="V1 $" style="ellipse;whiteSpace=wrap;html=1;aspect=fixed;" vertex="1" parent="1">
          <mxGeometry x="230" y="120" width="60" height="60" as="geometry" />
        </mxCell>
        <mxCell id="JzcaBnQAB8-s2QHEofvj-40" style="edgeStyle=none;rounded=0;orthogonalLoop=1;jettySize=auto;html=1;exitX=1;exitY=0.5;exitDx=0;exitDy=0;entryX=0;entryY=0.5;entryDx=0;entryDy=0;endArrow=none;endFill=0;" edge="1" parent="1" source="JzcaBnQAB8-s2QHEofvj-41" target="JzcaBnQAB8-s2QHEofvj-47">
          <mxGeometry relative="1" as="geometry" />
        </mxCell>
        <mxCell id="JzcaBnQAB8-s2QHEofvj-56" style="edgeStyle=none;rounded=0;orthogonalLoop=1;jettySize=auto;html=1;exitX=1;exitY=0.5;exitDx=0;exitDy=0;entryX=0;entryY=0.5;entryDx=0;entryDy=0;endArrow=none;endFill=0;" edge="1" parent="1" source="JzcaBnQAB8-s2QHEofvj-41" target="JzcaBnQAB8-s2QHEofvj-48">
          <mxGeometry relative="1" as="geometry" />
        </mxCell>
        <mxCell id="JzcaBnQAB8-s2QHEofvj-57" style="edgeStyle=none;rounded=0;orthogonalLoop=1;jettySize=auto;html=1;exitX=1;exitY=0.5;exitDx=0;exitDy=0;entryX=0;entryY=0.5;entryDx=0;entryDy=0;endArrow=none;endFill=0;" edge="1" parent="1" source="JzcaBnQAB8-s2QHEofvj-41" target="JzcaBnQAB8-s2QHEofvj-49">
          <mxGeometry relative="1" as="geometry" />
        </mxCell>
        <mxCell id="JzcaBnQAB8-s2QHEofvj-58" style="edgeStyle=none;rounded=0;orthogonalLoop=1;jettySize=auto;html=1;exitX=1;exitY=0.5;exitDx=0;exitDy=0;entryX=0;entryY=0.5;entryDx=0;entryDy=0;endArrow=none;endFill=0;" edge="1" parent="1" source="JzcaBnQAB8-s2QHEofvj-41" target="JzcaBnQAB8-s2QHEofvj-50">
          <mxGeometry relative="1" as="geometry" />
        </mxCell>
        <mxCell id="JzcaBnQAB8-s2QHEofvj-41" value="U1" style="ellipse;whiteSpace=wrap;html=1;aspect=fixed;" vertex="1" parent="1">
          <mxGeometry x="890" y="200" width="60" height="60" as="geometry" />
        </mxCell>
        <mxCell id="JzcaBnQAB8-s2QHEofvj-43" style="edgeStyle=none;rounded=0;orthogonalLoop=1;jettySize=auto;html=1;exitX=1;exitY=1;exitDx=0;exitDy=0;entryX=0;entryY=0.5;entryDx=0;entryDy=0;endArrow=none;endFill=0;" edge="1" parent="1" source="JzcaBnQAB8-s2QHEofvj-44" target="JzcaBnQAB8-s2QHEofvj-49">
          <mxGeometry relative="1" as="geometry" />
        </mxCell>
        <mxCell id="JzcaBnQAB8-s2QHEofvj-44" value="U2" style="ellipse;whiteSpace=wrap;html=1;aspect=fixed;" vertex="1" parent="1">
          <mxGeometry x="890" y="329" width="60" height="60" as="geometry" />
        </mxCell>
        <mxCell id="JzcaBnQAB8-s2QHEofvj-45" style="edgeStyle=none;rounded=0;orthogonalLoop=1;jettySize=auto;html=1;exitX=1;exitY=0.5;exitDx=0;exitDy=0;entryX=0;entryY=0.5;entryDx=0;entryDy=0;endArrow=none;endFill=0;" edge="1" parent="1" source="JzcaBnQAB8-s2QHEofvj-46" target="JzcaBnQAB8-s2QHEofvj-50">
          <mxGeometry relative="1" as="geometry" />
        </mxCell>
        <mxCell id="JzcaBnQAB8-s2QHEofvj-46" value="U3" style="ellipse;whiteSpace=wrap;html=1;aspect=fixed;" vertex="1" parent="1">
          <mxGeometry x="890" y="470" width="60" height="60" as="geometry" />
        </mxCell>
        <mxCell id="JzcaBnQAB8-s2QHEofvj-47" value="V2" style="ellipse;whiteSpace=wrap;html=1;aspect=fixed;" vertex="1" parent="1">
          <mxGeometry x="1000" y="217" width="60" height="60" as="geometry" />
        </mxCell>
        <mxCell id="JzcaBnQAB8-s2QHEofvj-48" value="V3" style="ellipse;whiteSpace=wrap;html=1;aspect=fixed;" vertex="1" parent="1">
          <mxGeometry x="1000" y="319" width="60" height="60" as="geometry" />
        </mxCell>
        <mxCell id="JzcaBnQAB8-s2QHEofvj-49" value="V4" style="ellipse;whiteSpace=wrap;html=1;aspect=fixed;" vertex="1" parent="1">
          <mxGeometry x="1000" y="422" width="60" height="60" as="geometry" />
        </mxCell>
        <mxCell id="JzcaBnQAB8-s2QHEofvj-50" value="V5" style="ellipse;whiteSpace=wrap;html=1;aspect=fixed;" vertex="1" parent="1">
          <mxGeometry x="1000" y="530" width="60" height="60" as="geometry" />
        </mxCell>
        <mxCell id="JzcaBnQAB8-s2QHEofvj-54" style="edgeStyle=none;rounded=0;orthogonalLoop=1;jettySize=auto;html=1;exitX=0;exitY=1;exitDx=0;exitDy=0;entryX=1;entryY=0;entryDx=0;entryDy=0;endArrow=none;endFill=0;" edge="1" parent="1" source="JzcaBnQAB8-s2QHEofvj-51" target="JzcaBnQAB8-s2QHEofvj-44">
          <mxGeometry relative="1" as="geometry" />
        </mxCell>
        <mxCell id="JzcaBnQAB8-s2QHEofvj-55" style="edgeStyle=none;rounded=0;orthogonalLoop=1;jettySize=auto;html=1;exitX=0;exitY=1;exitDx=0;exitDy=0;entryX=1;entryY=0;entryDx=0;entryDy=0;endArrow=none;endFill=0;" edge="1" parent="1" source="JzcaBnQAB8-s2QHEofvj-51" target="JzcaBnQAB8-s2QHEofvj-46">
          <mxGeometry relative="1" as="geometry" />
        </mxCell>
        <mxCell id="JzcaBnQAB8-s2QHEofvj-51" value="V1 $" style="ellipse;whiteSpace=wrap;html=1;aspect=fixed;" vertex="1" parent="1">
          <mxGeometry x="1000" y="120" width="60" height="60" as="geometry" />
        </mxCell>
        <mxCell id="JzcaBnQAB8-s2QHEofvj-61" value="V1 $" style="ellipse;whiteSpace=wrap;html=1;aspect=fixed;" vertex="1" parent="1">
          <mxGeometry x="1000" y="30" width="60" height="60" as="geometry" />
        </mxCell>
      </root>
    </mxGraphModel>
  </diagram>
</mxfile>
